HIERARCHY
ROOT Hips
{
   OFFSET 0.00000 0.00000 0.00000
   CHANNELS 6 Xposition Yposition Zposition Zrotation Xrotation Yrotation
   JOINT Spine
   {
      OFFSET 0.000000 13.079551 0.000000
      CHANNELS 3 Zrotation Xrotation Yrotation
      JOINT Spine1
      {
         OFFSET -0.000000 28.223142 0.140426
         CHANNELS 3 Zrotation Xrotation Yrotation
         JOINT HEad
         {
            OFFSET 0.000000 9.607577 0.012474
            CHANNELS 3 Zrotation Xrotation Yrotation
            End Site
            {
               OFFSET -0.319000 14.051621 2.765345
            }
         }
         JOINT LeftShoulder1
         {
            OFFSET 9.889000 -0.398475 -0.242000
            CHANNELS 3 Zrotation Xrotation Yrotation
            JOINT LeftArm
            {
               OFFSET 11.310971 -0.003718 0.354332
               CHANNELS 3 Zrotation Xrotation Yrotation
               JOINT LeftForeArm
               {
                  OFFSET 36.043591 0.109054 -1.566774
                  CHANNELS 3 Zrotation Xrotation Yrotation
                  JOINT LeftHand
                  {
                     OFFSET 30.320732 0.093896 1.124376
                     CHANNELS 3 Zrotation Xrotation Yrotation
                     End Site
                     {
                        OFFSET 18.418731 -0.660000 1.653201
                     }
                  }
               }
            }
         }
         JOINT RightShoulder
         {
            OFFSET -9.889000 -0.398475 -0.242000
            CHANNELS 3 Zrotation Xrotation Yrotation
            JOINT RightArm
            {
               OFFSET -11.310971 -0.003718 0.354332
               CHANNELS 3 Zrotation Xrotation Yrotation
               JOINT RightForeArm
               {
                  OFFSET -36.186809 0.109054 -1.566774
                  CHANNELS 3 Zrotation Xrotation Yrotation
                  JOINT RightHand
                  {
                     OFFSET -30.241313 0.093896 1.124376
                     CHANNELS 3 Zrotation Xrotation Yrotation
                     End Site
                     {
                        OFFSET -18.294322 -0.660000 1.653201
                     }
                  }
               }
            }
         }
      }
   }
   JOINT LeftUpLeg
   {
      OFFSET 9.840380 -9.533777 0.111815
      CHANNELS 3 Zrotation Xrotation Yrotation
      JOINT LeftLeg
      {
         OFFSET 0.000000 -48.864969 1.509970
         CHANNELS 3 Zrotation Xrotation Yrotation
         JOINT LeftFoot
         {
            OFFSET -0.278905 -46.301641 -1.606649
            CHANNELS 3 Zrotation Xrotation Yrotation
            JOINT LeftToes
            {
               OFFSET -0.044000 -4.856599 9.349010
               CHANNELS 3 Zrotation Xrotation Yrotation
               End Site
               {
                  OFFSET 0.088000 -0.052195 10.757769
               }
            }
         }
      }
   }
   JOINT RightUpLeg
   {
      OFFSET -9.840380 -9.533777 0.111815
      CHANNELS 3 Zrotation Xrotation Yrotation
      JOINT RightLeg
      {
         OFFSET 0.000000 -48.864969 1.509970
         CHANNELS 3 Zrotation Xrotation Yrotation
         JOINT RightFoot
         {
            OFFSET 0.278905 -46.301641 -1.606649
            CHANNELS 3 Zrotation Xrotation Yrotation
            JOINT RightToes
            {
               OFFSET 0.044000 -4.856599 9.349010
               CHANNELS 3 Zrotation Xrotation Yrotation
               End Site
               {
                  OFFSET -0.088000 -0.151195 10.757769
               }
            }
         }
      }
   }
}
MOTION
Frames: 12
Frame Time: 0.016670
90.615948 71.742185 -101.777180 -10.971254 -27.722534 -12.613451 8.458271 27.941862 134.296846 17.405899 -8.846399 -122.172673 27.122983 18.193822 -9.476977 -28.154779 28.992616 -4.030652 -66.145649 -26.522070 -118.948987 -20.281104 43.030287 -48.296373 -108.135405 -31.000101 -100.821297 19.936205 7.486979 24.795911 100.981581 -67.932337 95.736426 25.645795 58.472997 111.423075 -29.022683 -8.583868 -33.169632 -15.343202 -3.262908 29.990968 384.700515 46.505856 -282.283987 -31.935181 21.762424 -30.420136 -50.041121 -15.701107 -59.350068 -44.411727 28.464376 40.029509 -333.164989 21.261926 420.565073 -25.345720 25.163465 -23.617146 36.389578 -33.925584 -69.142408
93.211182 75.827311 -100.429333 -17.321375 -22.963171 -18.902040 14.004848 24.704354 135.880466 19.903291 -11.044216 -119.736139 24.091243 25.523736 -9.879450 -29.333231 24.678766 -6.313209 -55.756668 -29.323156 -111.648287 -17.416159 36.914317 -48.927602 -104.456487 -28.292151 -103.825262 18.744773 7.906083 25.537391 97.635095 -69.699096 96.416849 26.190717 59.116483 109.999889 -27.603899 -13.556600 -39.970059 -8.940955 0.475364 30.226015 384.704094 41.371204 -296.935179 -44.061175 33.735090 -27.585356 -31.230517 0.464314 -66.201028 -33.948878 29.366791 29.460696 -333.585947 22.746765 423.858426 -23.340763 27.046417 -22.880591 22.128288 -45.528904 -61.299507
95.736092 80.034064 -99.348486 -22.479373 -19.590693 -22.261443 19.492323 21.609137 136.020103 22.042778 -13.211616 -119.360684 21.459749 29.313382 -10.213796 -30.707766 21.592036 -8.235209 -44.287838 -30.893840 -103.064071 -15.132562 31.549436 -51.121268 -103.770217 -26.820346 -110.141097 19.342780 7.466898 25.662832 94.915690 -70.949198 96.053654 26.334074 58.914555 109.769234 -26.123127 -13.633657 -43.214040 -2.642628 2.030349 28.102767 385.886755 36.683225 -309.434999 -47.002657 42.286640 -25.026947 -23.674539 -12.325725 -57.062587 -21.844675 31.237716 20.704030 -331.137379 28.605152 430.274597 -22.060217 24.438422 -20.713196 27.152396 -41.210817 -60.707199
98.021954 83.874243 -98.615302 -25.643532 -16.331747 -24.941513 23.638665 18.797401 137.019851 24.064483 -14.694676 -118.810348 19.206620 31.208166 -10.454445 -32.442214 18.939138 -9.702577 -32.594551 -30.976438 -94.248858 -12.175061 26.243385 -52.923471 -100.103792 -25.403989 -113.627198 20.108097 6.962328 25.227637 92.186879 -71.497799 94.965652 25.817813 58.891967 109.588541 -26.048082 -16.577014 -45.697148 1.993661 3.266043 26.260780 385.867931 31.234414 -317.254446 -50.133851 49.188304 -19.882098 -8.975455 -5.707768 -64.710612 -10.239871 32.762228 12.029940 -329.136707 32.905249 433.035988 -33.590819 22.986489 -19.192620 45.262438 -42.708616 -53.416806
100.095719 87.337464 -98.282546 -25.234388 -12.881540 -28.726280 23.697644 17.761743 139.948554 25.400901 -15.101862 -118.513700 18.133594 30.734834 -10.862546 -33.880873 15.532212 -11.783394 -20.652477 -29.664096 -85.439273 -9.469219 21.159818 -55.412847 -98.151273 -24.608531 -119.490335 21.683733 5.254787 24.291832 88.992720 -70.609806 93.692915 25.022280 59.479254 109.928965 -25.155711 -16.788477 -46.535148 2.810011 1.274222 25.104248 384.959516 27.091737 -322.707450 -53.924268 53.123606 -14.923608 -7.483071 -13.907350 -55.407277 -3.644352 31.303163 3.104696 -330.086377 35.021412 430.620232 -21.903051 23.771363 -18.160638 23.168483 -45.049401 -55.518687
102.112950 90.286730 -98.327225 -21.220976 -9.604604 -31.445091 21.806830 14.945636 143.396844 26.467144 -15.320985 -119.148019 17.218316 29.974996 -11.094660 -36.160439 13.262051 -14.138867 -9.041311 -27.619960 -77.012302 -7.136501 15.806547 -57.913372 -94.880985 -24.179452 -123.855153 23.845953 3.868417 22.612316 85.946886 -68.171640 92.097253 24.289589 59.739082 110.614647 -24.759250 -18.517567 -45.960121 1.583992 -2.666720 25.291661 384.712618 23.412772 -324.715335 -59.605360 54.282017 -10.072257 14.148879 -16.258260 -60.426595 1.661757 27.893622 -1.526533 -332.573085 36.943530 427.523643 -35.634763 25.322720 -17.438424 32.073967 -56.085460 -45.787870
103.938111 92.582358 -98.765725 -17.499365 -5.202745 -35.480756 18.975623 12.377910 147.188992 27.727168 -15.442434 -118.890316 16.631673 29.382548 -11.169454 -38.070713 10.899602 -15.822951 2.294262 -24.902429 -69.621580 -5.795546 9.657032 -60.853837 -92.735056 -23.524819 -130.180264 26.236116 1.946564 21.045018 82.445663 -63.825543 91.382494 24.278809 60.065735 112.695546 -23.064494 -19.295515 -42.763490 0.310968 -7.845388 23.138398 384.642513 20.207422 -326.261635 -63.752262 56.081847 -4.557314 11.466200 -19.364447 -50.899123 5.311681 23.872956 -3.569784 -334.780465 36.204664 422.095773 -36.725043 27.694346 -16.475914 29.190518 -61.550202 -49.511519
105.586022 94.276169 -99.495533 -12.427726 -1.259822 -39.506777 16.137130 8.563034 150.101726 28.416794 -15.990818 -119.000105 15.718253 28.703026 -10.890463 -39.650098 9.586579 -16.529077 13.357614 -22.226079 -62.809040 -3.227842 3.203270 -61.490895 -91.479353 -24.229632 -132.727364 28.767053 0.938774 18.561541 79.225960 -58.275878 90.161735 23.028480 60.247220 113.146714 -23.068692 -20.487072 -41.302922 -0.342577 -14.467784 21.372886 384.490719 18.676242 -325.721585 -70.398261 55.784665 -0.748076 29.359998 -21.659863 -64.285672 7.477697 19.630949 -3.613564 -338.614606 33.684379 416.870733 -43.666458 31.789818 -14.604193 30.516988 -65.921072 -53.307885
107.361630 95.213717 -100.406111 -7.852878 3.952408 -43.889682 12.555448 5.188428 152.471542 31.098999 -16.222034 -118.490258 14.360693 27.561377 -10.274916 -35.045762 11.888201 -23.558504 15.988500 -29.482474 -56.444414 -1.175112 -0.007267 -62.439670 -92.223577 -24.654831 -134.485632 35.813079 -3.926318 4.953614 72.050832 -37.297457 91.970444 25.839029 64.074373 120.097935 -22.525269 -20.676164 -38.418882 1.021889 -21.455410 17.258495 381.732442 18.963059 -326.242674 -65.556019 56.003436 0.059794 19.479215 -21.134569 -54.770775 9.050679 14.538099 -3.155554 -341.567269 30.729841 415.695422 -48.056064 34.829293 -12.342082 47.796202 -58.363727 -60.147021
109.104965 95.735692 -101.337346 -4.110115 8.368919 -49.447404 10.559320 1.744492 154.608736 34.103001 -14.763959 -116.653334 12.662170 27.443123 -9.295082 -30.626240 15.748992 -26.277256 18.315571 -34.888763 -51.828247 0.691589 -1.644785 -62.113911 -93.355879 -25.402298 -135.353900 40.447124 -7.384849 -8.431796 67.362707 -24.694228 90.108213 23.527683 60.989894 116.987180 -26.894368 -19.506336 -42.212820 2.627625 -26.597989 11.976583 379.930283 17.869727 -326.687265 -61.579742 54.087739 -0.786204 11.680567 -22.600112 -50.836828 10.429256 10.604022 -2.403447 -344.624544 27.307354 415.447376 -51.355123 36.790578 -9.883544 52.723668 -54.403433 -66.557741
110.877474 95.889739 -102.171362 -0.441590 11.542427 -53.356772 10.651713 -4.375470 156.915236 34.644629 -14.255561 -115.636032 10.139810 28.051295 -7.851086 -26.902438 20.320352 -29.364561 22.968965 -37.039354 -46.691245 4.582230 -5.575197 -59.922506 -94.664906 -26.696261 -134.827142 42.575711 -9.590394 -17.008575 62.607379 -15.675453 88.708298 22.956729 61.637430 117.406676 -28.555091 -19.614242 -41.860833 2.937846 -31.746087 6.297024 379.296059 17.381155 -327.511314 -58.060160 51.685063 -2.215011 6.004868 -25.919391 -50.191973 11.259009 9.044460 0.159119 -348.720608 21.917998 416.819725 -52.845600 36.915458 -6.071031 50.713021 -50.923056 -69.123673
112.667998 95.809830 -102.839383 3.404602 14.862111 -56.915434 13.436100 -11.167468 159.749027 33.838612 -13.316364 -114.821654 8.297537 28.752361 -6.394228 -24.596411 26.116084 -32.452008 28.497998 -37.458496 -40.269590 7.472259 -11.397722 -58.331489 -95.253402 -28.275670 -133.973491 43.663402 -11.171427 -22.321799 60.128314 -10.853896 87.187863 23.386484 61.166939 118.550022 -29.230061 -20.828426 -39.717014 3.599734 -36.276907 1.203645 378.816389 15.812501 -327.759086 -55.423898 48.786528 -3.598709 2.169694 -31.766103 -50.262194 12.231253 8.099654 0.639077 -351.661333 13.337697 416.745331 -53.728023 36.077472 -4.062075 45.677344 -48.528149 -69.779105
